<svg data-v-423bf9ae="" xmlns="http://www.w3.org/2000/svg" viewBox="0 0 403.01142536055437 163" class="iconAbove"><!----><!----><!----><g data-v-423bf9ae="" id="6c82c585-fc6d-4ecf-8181-e6928e831ed1" fill="black" transform="matrix(4.909983142910657,0,0,4.909983142910657,-1.9148911397506936,84.24386496027661)"><path d="M0.39 12.43C1.04 13.17 2.16 13.66 3.40 13.66C5.12 13.66 6.16 12.91 6.16 11.62C6.16 10.47 5.50 9.95 4.09 9.66L3.18 9.48C1.95 9.24 1.69 8.89 1.69 8.25C1.69 7.71 2.11 7.13 3.39 7.13C4.21 7.13 4.89 7.38 5.46 7.88L5.99 7.20C5.33 6.58 4.45 6.33 3.46 6.33C1.67 6.33 0.81 7.29 0.81 8.32C0.81 9.41 1.43 9.98 2.69 10.23L3.56 10.42C4.93 10.70 5.31 11.06 5.31 11.69C5.31 12.32 4.83 12.88 3.49 12.88C2.53 12.88 1.61 12.53 0.98 11.77ZM13.87 11.38L13.05 11.20C12.80 12.15 11.96 12.88 10.70 12.88C9.66 12.88 8.18 12.32 8.16 10.19L13.90 10.19C13.90 7.62 12.68 6.33 10.63 6.33C8.76 6.33 7.27 7.71 7.27 9.97C7.27 12.19 8.50 13.66 10.67 13.66C12.38 13.66 13.54 12.71 13.87 11.38ZM8.16 9.51C8.30 7.91 9.37 7.11 10.61 7.11C12.28 7.11 12.91 8.19 13.01 9.51ZM16.37 13.50L16.37 9.95C16.37 9.14 16.45 8.60 16.70 8.15C16.97 7.67 17.51 7.13 18.35 7.13C18.59 7.13 18.84 7.17 19.05 7.22L19.22 6.43C18.98 6.36 18.68 6.30 18.42 6.30C17.26 6.30 16.55 7.11 16.37 7.94L16.37 6.51L15.53 6.51L15.53 13.50ZM23.37 13.50L26.24 6.51L25.33 6.51C23.52 10.96 23.18 11.79 22.92 12.50C22.65 11.79 22.29 10.89 20.52 6.51L19.57 6.51L22.43 13.50ZM28.25 13.50L28.25 6.51L27.41 6.51L27.41 13.50ZM28.31 5.11L28.31 3.82L27.36 3.82L27.36 5.11ZM36.54 11.17L35.70 11.02C35.56 12.03 34.71 12.87 33.40 12.87C32.26 12.87 30.81 12.15 30.81 9.94C30.81 8.05 32.02 7.13 33.39 7.13C34.99 7.13 35.52 8.22 35.64 9.06L36.50 8.90C36.33 7.39 35.22 6.33 33.40 6.33C31.47 6.33 29.93 7.67 29.93 9.97C29.93 12.29 31.33 13.66 33.35 13.66C35.15 13.66 36.30 12.60 36.54 11.17ZM44.13 11.38L43.30 11.20C43.05 12.15 42.21 12.88 40.95 12.88C39.91 12.88 38.43 12.32 38.42 10.19L44.16 10.19C44.16 7.62 42.94 6.33 40.88 6.33C39.02 6.33 37.52 7.71 37.52 9.97C37.52 12.19 38.75 13.66 40.92 13.66C42.63 13.66 43.79 12.71 44.13 11.38ZM38.42 9.51C38.56 7.91 39.62 7.11 40.87 7.11C42.53 7.11 43.16 8.19 43.26 9.51ZM49.39 13.50L49.39 3.82L48.55 3.82L48.55 13.50ZM58.00 10.01C58.00 7.70 56.50 6.33 54.63 6.33C52.70 6.33 51.07 7.71 51.07 9.98C51.07 12.26 52.47 13.66 54.60 13.66C56.46 13.66 58.00 12.26 58.00 10.01ZM57.13 10.00C57.13 11.87 55.92 12.87 54.60 12.87C53.14 12.87 51.95 11.87 51.95 9.95C51.95 8.05 53.23 7.13 54.61 7.13C55.93 7.13 57.13 8.06 57.13 10.00ZM65.81 13.50L65.81 3.82L64.96 3.82L64.96 7.85C64.55 6.83 63.60 6.33 62.41 6.33C60.63 6.33 59.12 7.66 59.12 9.98C59.12 12.36 60.51 13.66 62.33 13.66C63.80 13.66 64.65 12.84 64.97 12.00L64.97 13.50ZM64.96 10.07C64.96 11.73 64.04 12.85 62.50 12.85C61.03 12.85 60.00 11.82 60.00 9.97C60.00 7.98 61.28 7.11 62.51 7.11C64.02 7.11 64.96 8.11 64.96 10.07ZM67.76 13.99C67.93 15.08 68.80 16.04 70.83 16.04C72.09 16.04 73.07 15.65 73.61 14.92C74.00 14.38 74.17 13.55 74.17 12.40L74.17 6.51L73.32 6.51L73.32 7.76C72.95 6.85 71.96 6.33 70.78 6.33C68.92 6.33 67.49 7.62 67.49 9.93C67.49 12.12 68.84 13.30 70.66 13.30C72.03 13.30 72.98 12.59 73.33 11.73L73.33 12.54C73.33 13.26 73.19 13.87 73.00 14.22C72.70 14.77 72.11 15.27 70.88 15.27C69.76 15.27 68.80 14.92 68.63 13.85ZM73.33 9.83C73.33 11.51 72.39 12.59 70.80 12.59C69.54 12.59 68.38 11.72 68.38 9.90C68.38 8.05 69.57 7.08 70.91 7.08C72.55 7.08 73.33 8.27 73.33 9.83ZM82.45 11.38L81.62 11.20C81.37 12.15 80.53 12.88 79.27 12.88C78.23 12.88 76.75 12.32 76.73 10.19L82.47 10.19C82.47 7.62 81.26 6.33 79.20 6.33C77.34 6.33 75.84 7.71 75.84 9.97C75.84 12.19 77.07 13.66 79.24 13.66C80.95 13.66 82.11 12.71 82.45 11.38ZM76.73 9.51C76.87 7.91 77.94 7.11 79.18 7.11C80.85 7.11 81.48 8.19 81.58 9.51Z"></path></g><!----><g data-v-423bf9ae="" id="a3494f66-f94c-4af7-90c3-757a8ab5c3e0" transform="matrix(1.350357802783895,0,0,1.350357802783895,134.1457972767845,-27.130132253903128)" stroke="none" fill="black"><path d="M94.05 51.572L53.179 21.701c-1.806-1.8-4.998-1.8-6.805 0L6.192 50.883c-1.879 1.879-2.1 4.471-.269 6.4.531.555 1.218.885 1.958 1.047a4.317 4.317 0 0 0 3.253-.354c.083-.035.156-.084.237-.125.033-.023.068-.037.102-.057.48-.252 1.107-.557 1.494-.945L18 53.432v30.125C18 85.066 19.063 87 20.575 87h58.83C80.917 87 83 85.066 83 83.561V53.432l4.489 3.59c.094.088.048.158.144.236l.364.438c1.69 1.691 4.396 1.691 6.087 0s1.655-4.432-.034-6.124zM49 54h15.101c2.014 0 3.899.729 3.899 2.743V64H49V54zm-11.297-4.448c2.374 0 4.388 2.014 4.388 4.389 0 2.445-2.014 4.387-4.388 4.387s-4.388-1.941-4.388-4.387c0-2.376 2.014-4.389 4.388-4.389zM35.329 60H43v-4.837a2 2 0 0 1 2-2.016c1.152 0 2 .863 2 2.016v5.609C47 62.067 45.759 64 44.536 64h-9.207c-1.15 0-2.014-.885-2.014-2.035 0-1.08.864-1.965 2.014-1.965zM74 79h-4v-7H32v7h-4V50.984c0-1.295.706-2.445 2-2.445s2 1.15 2 2.445V66h38v-9.045c0-1.295.741-2.375 1.964-2.375 1.295 0 2.036 1.08 2.036 2.375V79z"></path></g><!----></svg>